<mxfile host="app.diagrams.net" modified="2023-11-15T04:04:48.299Z" agent="Mozilla/5.0 (Windows NT 10.0; Win64; x64) AppleWebKit/537.36 (KHTML, like Gecko) Chrome/119.0.0.0 Safari/537.36" etag="TtPfDSIIPbYohRtgOsaK" version="22.1.0" type="github">
  <diagram id="C5RBs43oDa-KdzZeNtuy" name="Page-1">
    <mxGraphModel dx="678" dy="590" grid="1" gridSize="10" guides="1" tooltips="1" connect="1" arrows="1" fold="1" page="1" pageScale="1" pageWidth="827" pageHeight="1169" math="0" shadow="0">
      <root>
        <mxCell id="WIyWlLk6GJQsqaUBKTNV-0" />
        <mxCell id="WIyWlLk6GJQsqaUBKTNV-1" parent="WIyWlLk6GJQsqaUBKTNV-0" />
        <mxCell id="ZNPZ2HFQagIpgvbCFuVt-0" value="Tài Khoản" style="swimlane;childLayout=stackLayout;horizontal=1;startSize=50;horizontalStack=0;rounded=1;fontSize=14;fontStyle=0;strokeWidth=2;resizeParent=0;resizeLast=1;shadow=0;dashed=0;align=center;arcSize=4;whiteSpace=wrap;html=1;" vertex="1" parent="WIyWlLk6GJQsqaUBKTNV-1">
          <mxGeometry x="90" y="140" width="190" height="120" as="geometry" />
        </mxCell>
        <mxCell id="ZNPZ2HFQagIpgvbCFuVt-1" value="+TenTaiKhoan VARCHAR(50)&lt;br&gt;+MatKhau VARCHAR(50)&lt;br&gt;+MaQH VARCHAR(5)" style="align=left;strokeColor=none;fillColor=none;spacingLeft=4;fontSize=12;verticalAlign=top;resizable=0;rotatable=0;part=1;html=1;" vertex="1" parent="ZNPZ2HFQagIpgvbCFuVt-0">
          <mxGeometry y="50" width="190" height="70" as="geometry" />
        </mxCell>
        <mxCell id="ZNPZ2HFQagIpgvbCFuVt-3" value="Quyền Hạn" style="swimlane;childLayout=stackLayout;horizontal=1;startSize=50;horizontalStack=0;rounded=1;fontSize=14;fontStyle=0;strokeWidth=2;resizeParent=0;resizeLast=1;shadow=0;dashed=0;align=center;arcSize=4;whiteSpace=wrap;html=1;" vertex="1" parent="WIyWlLk6GJQsqaUBKTNV-1">
          <mxGeometry x="390" y="140" width="190" height="120" as="geometry" />
        </mxCell>
        <mxCell id="ZNPZ2HFQagIpgvbCFuVt-4" value="+MaQH VARCHAR(5)&lt;br&gt;+TenQuyenHan VARCHAR(50)" style="align=left;strokeColor=none;fillColor=none;spacingLeft=4;fontSize=12;verticalAlign=top;resizable=0;rotatable=0;part=1;html=1;" vertex="1" parent="ZNPZ2HFQagIpgvbCFuVt-3">
          <mxGeometry y="50" width="190" height="70" as="geometry" />
        </mxCell>
        <mxCell id="ZNPZ2HFQagIpgvbCFuVt-6" value="" style="fontSize=12;html=1;endArrow=ERoneToMany;startArrow=ERmandOne;rounded=0;exitX=0;exitY=0.25;exitDx=0;exitDy=0;entryX=1;entryY=0.25;entryDx=0;entryDy=0;" edge="1" parent="WIyWlLk6GJQsqaUBKTNV-1" source="ZNPZ2HFQagIpgvbCFuVt-4" target="ZNPZ2HFQagIpgvbCFuVt-1">
          <mxGeometry width="100" height="100" relative="1" as="geometry">
            <mxPoint x="270" y="310" as="sourcePoint" />
            <mxPoint x="370" y="210" as="targetPoint" />
          </mxGeometry>
        </mxCell>
        <mxCell id="ZNPZ2HFQagIpgvbCFuVt-7" value="Nhân viên" style="swimlane;childLayout=stackLayout;horizontal=1;startSize=50;horizontalStack=0;rounded=1;fontSize=14;fontStyle=0;strokeWidth=2;resizeParent=0;resizeLast=1;shadow=0;dashed=0;align=center;arcSize=4;whiteSpace=wrap;html=1;" vertex="1" parent="WIyWlLk6GJQsqaUBKTNV-1">
          <mxGeometry x="30" y="340" width="160" height="120" as="geometry" />
        </mxCell>
        <mxCell id="ZNPZ2HFQagIpgvbCFuVt-8" value="+MaNV&amp;nbsp;&lt;br&gt;+" style="align=left;strokeColor=none;fillColor=none;spacingLeft=4;fontSize=12;verticalAlign=top;resizable=0;rotatable=0;part=1;html=1;" vertex="1" parent="ZNPZ2HFQagIpgvbCFuVt-7">
          <mxGeometry y="50" width="160" height="70" as="geometry" />
        </mxCell>
        <mxCell id="ZNPZ2HFQagIpgvbCFuVt-9" value="Phòng ban" style="swimlane;childLayout=stackLayout;horizontal=1;startSize=50;horizontalStack=0;rounded=1;fontSize=14;fontStyle=0;strokeWidth=2;resizeParent=0;resizeLast=1;shadow=0;dashed=0;align=center;arcSize=4;whiteSpace=wrap;html=1;" vertex="1" parent="WIyWlLk6GJQsqaUBKTNV-1">
          <mxGeometry x="220" y="340" width="180" height="120" as="geometry" />
        </mxCell>
        <mxCell id="ZNPZ2HFQagIpgvbCFuVt-10" value="+MaPB VARCHAR(5)&lt;br&gt;+MaCN VARCHAR(5)&lt;br&gt;+TenPhongBan VARCHAR(50)" style="align=left;strokeColor=none;fillColor=none;spacingLeft=4;fontSize=12;verticalAlign=top;resizable=0;rotatable=0;part=1;html=1;" vertex="1" parent="ZNPZ2HFQagIpgvbCFuVt-9">
          <mxGeometry y="50" width="180" height="70" as="geometry" />
        </mxCell>
        <mxCell id="ZNPZ2HFQagIpgvbCFuVt-11" value="Chi nhánh" style="swimlane;childLayout=stackLayout;horizontal=1;startSize=50;horizontalStack=0;rounded=1;fontSize=14;fontStyle=0;strokeWidth=2;resizeParent=0;resizeLast=1;shadow=0;dashed=0;align=center;arcSize=4;whiteSpace=wrap;html=1;" vertex="1" parent="WIyWlLk6GJQsqaUBKTNV-1">
          <mxGeometry x="414" y="340" width="176" height="120" as="geometry" />
        </mxCell>
        <mxCell id="ZNPZ2HFQagIpgvbCFuVt-12" value="+MaCN VARCHAR(5)&lt;br&gt;+TenChiNhanh VARCHAR(50)" style="align=left;strokeColor=none;fillColor=none;spacingLeft=4;fontSize=12;verticalAlign=top;resizable=0;rotatable=0;part=1;html=1;" vertex="1" parent="ZNPZ2HFQagIpgvbCFuVt-11">
          <mxGeometry y="50" width="176" height="70" as="geometry" />
        </mxCell>
        <mxCell id="ZNPZ2HFQagIpgvbCFuVt-14" value="Chức vụ" style="swimlane;childLayout=stackLayout;horizontal=1;startSize=50;horizontalStack=0;rounded=1;fontSize=14;fontStyle=0;strokeWidth=2;resizeParent=0;resizeLast=1;shadow=0;dashed=0;align=center;arcSize=4;whiteSpace=wrap;html=1;" vertex="1" parent="WIyWlLk6GJQsqaUBKTNV-1">
          <mxGeometry x="30" y="470" width="170" height="120" as="geometry" />
        </mxCell>
        <mxCell id="ZNPZ2HFQagIpgvbCFuVt-15" value="+MaCV VARCHAR(5)&lt;br&gt;+TenChucVu VARCHAR(50)" style="align=left;strokeColor=none;fillColor=none;spacingLeft=4;fontSize=12;verticalAlign=top;resizable=0;rotatable=0;part=1;html=1;" vertex="1" parent="ZNPZ2HFQagIpgvbCFuVt-14">
          <mxGeometry y="50" width="170" height="70" as="geometry" />
        </mxCell>
      </root>
    </mxGraphModel>
  </diagram>
</mxfile>
